ffmpeg version 7.1.1 Copyright (c) 2000-2025 the FFmpeg developers
  built with Apple clang version 17.0.0 (clang-1700.0.13.3)
  configuration: --prefix=/opt/homebrew/Cellar/ffmpeg/7.1.1_5 --enable-shared --enable-pthreads --enable-version3 --cc=clang --host-cflags= --host-ldflags='-Wl,-ld_classic' --enable-ffplay --enable-gnutls --enable-gpl --enable-libaom --enable-libaribb24 --enable-libbluray --enable-libdav1d --enable-libharfbuzz --enable-libjxl --enable-libmp3lame --enable-libopus --enable-librav1e --enable-librist --enable-librubberband --enable-libsnappy --enable-libsrt --enable-libssh --enable-libsvtav1 --enable-libtesseract --enable-libtheora --enable-libvidstab --enable-libvmaf --enable-libvorbis --enable-libvpx --enable-libwebp --enable-libx264 --enable-libx265 --enable-libxml2 --enable-libxvid --enable-lzma --enable-libfontconfig --enable-libfreetype --enable-frei0r --enable-libass --enable-libopencore-amrnb --enable-libopencore-amrwb --enable-libopenjpeg --enable-libspeex --enable-libsoxr --enable-libzmq --enable-libzimg --disable-libjack --disable-indev=jack --enable-videotoolbox --enable-audiotoolbox --enable-neon
  libavutil      59. 39.100 / 59. 39.100
  libavcodec     61. 19.101 / 61. 19.101
  libavformat    61.  7.100 / 61.  7.100
  libavdevice    61.  3.100 / 61.  3.100
  libavfilter    10.  4.100 / 10.  4.100
  libswscale      8.  3.100 /  8.  3.100
  libswresample   5.  3.100 /  5.  3.100
  libpostproc    58.  3.100 / 58.  3.100
Input #0, matroska,webm, from 'uploads/b8c972a8ae484ea8e62df8da315813b2':
  Metadata:
    encoder         : WebKit
  Duration: N/A, start: 0.000000, bitrate: N/A
  Stream #0:0(eng): Video: vp9 (Profile 0), yuv420p(tv), 2880x1600, SAR 1:1 DAR 9:5, 60 fps, 60 tbr, 1k tbn (default)
[out#0/mp4 @ 0x12ee333f0] Codec AVOption b:a (set bitrate (in bits/s)) has not been used for any stream. The most likely reason is either wrong type (e.g. a video option with no video streams) or that it is a private option of some decoder which was not actually used for any stream.
Stream mapping:
  Stream #0:0 -> #0:0 (vp9 (native) -> h264 (h264_videotoolbox))
Press [q] to stop, [?] for help
[swscaler @ 0x1480f8000] No accelerated colorspace conversion found from yuv420p to bgr24.
[swscaler @ 0x148118000] No accelerated colorspace conversion found from yuv420p to bgr24.
[swscaler @ 0x148138000] No accelerated colorspace conversion found from yuv420p to bgr24.
[swscaler @ 0x148158000] No accelerated colorspace conversion found from yuv420p to bgr24.
[swscaler @ 0x148178000] No accelerated colorspace conversion found from yuv420p to bgr24.
[swscaler @ 0x148198000] No accelerated colorspace conversion found from yuv420p to bgr24.
[swscaler @ 0x1481b8000] No accelerated colorspace conversion found from yuv420p to bgr24.
[swscaler @ 0x1481d8000] No accelerated colorspace conversion found from yuv420p to bgr24.
[swscaler @ 0x1481f8000] No accelerated colorspace conversion found from yuv420p to bgr24.
[swscaler @ 0x148218000] No accelerated colorspace conversion found from yuv420p to bgr24.
[swscaler @ 0x148238000] No accelerated colorspace conversion found from yuv420p to bgr24.
[swscaler @ 0x148258000] No accelerated colorspace conversion found from yuv420p to bgr24.
[swscaler @ 0x148278000] No accelerated colorspace conversion found from yuv420p to bgr24.
[swscaler @ 0x148298000] No accelerated colorspace conversion found from yuv420p to bgr24.
[swscaler @ 0x1482b8000] No accelerated colorspace conversion found from yuv420p to bgr24.
[h264_videotoolbox @ 0x12ee36980] Error: cannot prepare encoder: -12902
[vost#0:0/h264_videotoolbox @ 0x12ee34340] Error while opening encoder - maybe incorrect parameters such as bit_rate, rate, width or height.
[vf#0:0 @ 0x11ee04110] Error sending frames to consumers: Generic error in an external library
[vf#0:0 @ 0x11ee04110] Task finished with error code: -542398533 (Generic error in an external library)
[vf#0:0 @ 0x11ee04110] Terminating thread with return code -542398533 (Generic error in an external library)
[vost#0:0/h264_videotoolbox @ 0x12ee34340] Could not open encoder before EOF
[vost#0:0/h264_videotoolbox @ 0x12ee34340] Task finished with error code: -22 (Invalid argument)
[vost#0:0/h264_videotoolbox @ 0x12ee34340] Terminating thread with return code -22 (Invalid argument)
[out#0/mp4 @ 0x12ee333f0] Nothing was written into output file, because at least one of its streams received no packets.
frame=    0 fps=0.0 q=0.0 Lsize=       0KiB time=N/A bitrate=N/A speed=N/A    
Conversion failed!

---- FALLBACK to software ----
ffmpeg version 7.1.1 Copyright (c) 2000-2025 the FFmpeg developers
  built with Apple clang version 17.0.0 (clang-1700.0.13.3)
  configuration: --prefix=/opt/homebrew/Cellar/ffmpeg/7.1.1_5 --enable-shared --enable-pthreads --enable-version3 --cc=clang --host-cflags= --host-ldflags='-Wl,-ld_classic' --enable-ffplay --enable-gnutls --enable-gpl --enable-libaom --enable-libaribb24 --enable-libbluray --enable-libdav1d --enable-libharfbuzz --enable-libjxl --enable-libmp3lame --enable-libopus --enable-librav1e --enable-librist --enable-librubberband --enable-libsnappy --enable-libsrt --enable-libssh --enable-libsvtav1 --enable-libtesseract --enable-libtheora --enable-libvidstab --enable-libvmaf --enable-libvorbis --enable-libvpx --enable-libwebp --enable-libx264 --enable-libx265 --enable-libxml2 --enable-libxvid --enable-lzma --enable-libfontconfig --enable-libfreetype --enable-frei0r --enable-libass --enable-libopencore-amrnb --enable-libopencore-amrwb --enable-libopenjpeg --enable-libspeex --enable-libsoxr --enable-libzmq --enable-libzimg --disable-libjack --disable-indev=jack --enable-videotoolbox --enable-audiotoolbox --enable-neon
  libavutil      59. 39.100 / 59. 39.100
  libavcodec     61. 19.101 / 61. 19.101
  libavformat    61.  7.100 / 61.  7.100
  libavdevice    61.  3.100 / 61.  3.100
  libavfilter    10.  4.100 / 10.  4.100
  libswscale      8.  3.100 /  8.  3.100
  libswresample   5.  3.100 /  5.  3.100
  libpostproc    58.  3.100 / 58.  3.100
Input #0, matroska,webm, from 'uploads/b8c972a8ae484ea8e62df8da315813b2':
  Metadata:
    encoder         : WebKit
  Duration: N/A, start: 0.000000, bitrate: N/A
  Stream #0:0(eng): Video: vp9 (Profile 0), yuv420p(tv), 2880x1600, SAR 1:1 DAR 9:5, 60 fps, 60 tbr, 1k tbn (default)
[out#0/mp4 @ 0x149904780] Codec AVOption b:a (set bitrate (in bits/s)) has not been used for any stream. The most likely reason is either wrong type (e.g. a video option with no video streams) or that it is a private option of some decoder which was not actually used for any stream.
Stream mapping:
  Stream #0:0 -> #0:0 (vp9 (native) -> h264 (libx264))
Press [q] to stop, [?] for help
[swscaler @ 0x1187d8000] No accelerated colorspace conversion found from yuv420p to bgr24.
[swscaler @ 0x1187f8000] No accelerated colorspace conversion found from yuv420p to bgr24.
[swscaler @ 0x118818000] No accelerated colorspace conversion found from yuv420p to bgr24.
[swscaler @ 0x118838000] No accelerated colorspace conversion found from yuv420p to bgr24.
[swscaler @ 0x118858000] No accelerated colorspace conversion found from yuv420p to bgr24.
[swscaler @ 0x118878000] No accelerated colorspace conversion found from yuv420p to bgr24.
[swscaler @ 0x118898000] No accelerated colorspace conversion found from yuv420p to bgr24.
[swscaler @ 0x1188b8000] No accelerated colorspace conversion found from yuv420p to bgr24.
[swscaler @ 0x1188d8000] No accelerated colorspace conversion found from yuv420p to bgr24.
[swscaler @ 0x1188f8000] No accelerated colorspace conversion found from yuv420p to bgr24.
[swscaler @ 0x118918000] No accelerated colorspace conversion found from yuv420p to bgr24.
[swscaler @ 0x118938000] No accelerated colorspace conversion found from yuv420p to bgr24.
[swscaler @ 0x118958000] No accelerated colorspace conversion found from yuv420p to bgr24.
[swscaler @ 0x118978000] No accelerated colorspace conversion found from yuv420p to bgr24.
[swscaler @ 0x118998000] No accelerated colorspace conversion found from yuv420p to bgr24.
[libx264 @ 0x1499055f0] using SAR=1/1
[libx264 @ 0x1499055f0] frame MB size (180x100) > level limit (8704)
[libx264 @ 0x1499055f0] DPB size (4 frames, 72000 mbs) > level limit (1 frames, 34816 mbs)
[libx264 @ 0x1499055f0] MB rate (1080000) > level limit (522240)
[libx264 @ 0x1499055f0] using cpu capabilities: ARMv8 NEON
[libx264 @ 0x1499055f0] profile High, level 4.2, 4:2:0, 8-bit
[libx264 @ 0x1499055f0] 264 - core 164 r3108 31e19f9 - H.264/MPEG-4 AVC codec - Copyleft 2003-2023 - http://www.videolan.org/x264.html - options: cabac=1 ref=1 deblock=1:1:1 analyse=0x3:0x113 me=hex subme=7 psy=1 psy_rd=0.40:0.00 mixed_ref=0 me_range=16 chroma_me=1 trellis=1 8x8dct=1 cqm=0 deadzone=21,11 fast_pskip=1 chroma_qp_offset=-2 threads=21 lookahead_threads=3 sliced_threads=0 nr=0 decimate=1 interlaced=0 bluray_compat=0 constrained_intra=0 bframes=5 b_pyramid=2 b_adapt=1 b_bias=0 direct=1 weightb=1 open_gop=0 weightp=2 keyint=250 keyint_min=25 scenecut=40 intra_refresh=0 rc_lookahead=40 rc=abr mbtree=1 bitrate=12000 ratetol=1.0 qcomp=0.60 qpmin=0 qpmax=69 qpstep=4 vbv_maxrate=18000 vbv_bufsize=24000 nal_hrd=none filler=0 ip_ratio=1.40 aq=1:0.60
Output #0, mp4, to 'uploads/converted-1756159754965.mp4':
  Metadata:
    encoder         : Lavf61.7.100
  Stream #0:0(eng): Video: h264 (avc1 / 0x31637661), yuv420p(tv, bt709/unknown/unknown, progressive), 2880x1600 [SAR 1:1 DAR 9:5], q=2-31, 12000 kb/s, 60 fps, 15360 tbn (default)
      Metadata:
        encoder         : Lavc61.19.101 libx264
      Side data:
        cpb: bitrate max/min/avg: 18000000/0/12000000 buffer size: 24000000 vbv_delay: N/A
frame=    0 fps=0.0 q=0.0 size=       0KiB time=N/A bitrate=N/A speed=N/A    [mp4 @ 0x149904840] Starting second pass: moving the moov atom to the beginning of the file
[out#0/mp4 @ 0x149904780] video:794KiB audio:0KiB subtitle:0KiB other streams:0KiB global headers:0KiB muxing overhead: 0.216351%
frame=   84 fps=0.0 q=-1.0 Lsize=     796KiB time=00:00:01.43 bitrate=4547.7kbits/s speed=1.52x    
[libx264 @ 0x1499055f0] frame I:1     Avg QP:18.22  size: 22652
[libx264 @ 0x1499055f0] frame P:14    Avg QP: 7.29  size: 23210
[libx264 @ 0x1499055f0] frame B:69    Avg QP:13.22  size:  6734
[libx264 @ 0x1499055f0] consecutive B-frames:  1.2%  0.0%  0.0%  0.0%  6.0% 92.9%
[libx264 @ 0x1499055f0] mb I  I16..4:  5.6% 92.3%  2.1%
[libx264 @ 0x1499055f0] mb P  I16..4:  1.1%  0.2%  0.2%  P16..4:  1.6%  0.5%  0.7%  0.0%  0.0%    skip:95.6%
[libx264 @ 0x1499055f0] mb B  I16..4:  0.1%  0.0%  0.0%  B16..8:  1.4%  0.5%  0.2%  direct: 0.2%  skip:97.7%  L0:38.8% L1:41.5% BI:19.7%
[libx264 @ 0x1499055f0] final ratefactor: 0.13
[libx264 @ 0x1499055f0] 8x8 transform intra:74.3% inter:13.5%
[libx264 @ 0x1499055f0] coded y,uvDC,uvAC intra: 9.2% 16.6% 14.4% inter: 0.6% 1.4% 1.3%
[libx264 @ 0x1499055f0] i16 v,h,dc,p: 68% 16% 16%  0%
[libx264 @ 0x1499055f0] i8 v,h,dc,ddl,ddr,vr,hd,vl,hu: 94%  0%  6%  0%  0%  0%  0%  0%  0%
[libx264 @ 0x1499055f0] i4 v,h,dc,ddl,ddr,vr,hd,vl,hu: 34% 24% 32%  2%  1%  2%  2%  1%  3%
[libx264 @ 0x1499055f0] i8c dc,h,v,p: 90%  5%  5%  0%
[libx264 @ 0x1499055f0] Weighted P-Frames: Y:0.0% UV:0.0%
[libx264 @ 0x1499055f0] kb/s:4430.54
